<?xml version="1.0" encoding="UTF-8" standalone="no"?>
<!-- Created with Inkscape (http://www.inkscape.org/) -->
<svg
   xmlns:dc="http://purl.org/dc/elements/1.1/"
   xmlns:cc="http://web.resource.org/cc/"
   xmlns:rdf="http://www.w3.org/1999/02/22-rdf-syntax-ns#"
   xmlns:svg="http://www.w3.org/2000/svg"
   xmlns="http://www.w3.org/2000/svg"
   xmlns:xlink="http://www.w3.org/1999/xlink"
   xmlns:sodipodi="http://inkscape.sourceforge.net/DTD/sodipodi-0.dtd"
   xmlns:inkscape="http://www.inkscape.org/namespaces/inkscape"
   id="svg2"
   sodipodi:version="0.32"
   inkscape:version="0.42"
   width="298.00000pt"
   height="258.00000pt"
   sodipodi:docbase="/home/chckens/img/projects"
   sodipodi:docname="backup4.svg">
  <metadata
     id="metadata7">
    <rdf:RDF>
      <cc:Work
         rdf:about="">
        <dc:format>image/svg+xml</dc:format>
        <dc:type
           rdf:resource="http://purl.org/dc/dcmitype/StillImage" />
        <cc:license
           rdf:resource="http://creativecommons.org/licenses/by-nc/2.0/" />
        <dc:creator>
          <cc:Agent>
            <dc:title>Graham Cole</dc:title>
          </cc:Agent>
        </dc:creator>
        <dc:title>Logo for pyBackPack</dc:title>
        <dc:date>2005-09-17</dc:date>
        <dc:contributor>
          <cc:Agent>
            <dc:title>Incorporates python image from the Open Clipart project</dc:title>
          </cc:Agent>
        </dc:contributor>
      </cc:Work>
      <cc:License
         rdf:about="http://creativecommons.org/licenses/by-nc/2.0/">
        <cc:permits
           rdf:resource="http://web.resource.org/cc/Reproduction" />
        <cc:permits
           rdf:resource="http://web.resource.org/cc/Distribution" />
        <cc:requires
           rdf:resource="http://web.resource.org/cc/Notice" />
        <cc:requires
           rdf:resource="http://web.resource.org/cc/Attribution" />
        <cc:prohibits
           rdf:resource="http://web.resource.org/cc/CommercialUse" />
        <cc:permits
           rdf:resource="http://web.resource.org/cc/DerivativeWorks" />
      </cc:License>
    </rdf:RDF>
  </metadata>
  <defs
     id="defs5">
    <linearGradient
       inkscape:collect="always"
       id="linearGradient5984">
      <stop
         style="stop-color:#1e2124;stop-opacity:1;"
         offset="0"
         id="stop5986" />
      <stop
         style="stop-color:#1e2124;stop-opacity:0;"
         offset="1"
         id="stop5988" />
    </linearGradient>
    <linearGradient
       inkscape:collect="always"
       id="linearGradient2351">
      <stop
         style="stop-color:#262721;stop-opacity:1;"
         offset="0"
         id="stop2353" />
      <stop
         style="stop-color:#262721;stop-opacity:0;"
         offset="1"
         id="stop2355" />
    </linearGradient>
    <linearGradient
       id="linearGradient2149">
      <stop
         style="stop-color:#ffffff;stop-opacity:1.0000000;"
         offset="0.0000000"
         id="stop2151" />
      <stop
         style="stop-color:#171714;stop-opacity:1.0000000;"
         offset="1.0000000"
         id="stop2153" />
    </linearGradient>
    <linearGradient
       id="linearGradient2336">
      <stop
         style="stop-color:#c8faec;stop-opacity:1.0000000;"
         offset="0.0000000"
         id="stop2338" />
      <stop
         id="stop2344"
         offset="0.33996093"
         style="stop-color:#fbd0fe;stop-opacity:1.0000000;" />
      <stop
         style="stop-color:#ffffff;stop-opacity:1.0000000;"
         offset="0.62912309"
         id="stop2346" />
      <stop
         style="stop-color:#e9faff;stop-opacity:1.0000000;"
         offset="1.0000000"
         id="stop2340" />
    </linearGradient>
    <linearGradient
       id="linearGradient2219">
      <stop
         id="stop2221"
         offset="0.0000000"
         style="stop-color:#000000;stop-opacity:1.0000000;" />
      <stop
         id="stop2223"
         offset="1.0000000"
         style="stop-color:#f9f9f8;stop-opacity:1.0000000;" />
    </linearGradient>
    <linearGradient
       id="linearGradient2199">
      <stop
         style="stop-color:#12130f;stop-opacity:1.0000000;"
         offset="0.0000000"
         id="stop2201" />
      <stop
         style="stop-color:#b5b6a6;stop-opacity:0;"
         offset="1"
         id="stop2203" />
    </linearGradient>
    <linearGradient
       id="linearGradient2061">
      <stop
         style="stop-color:#252512;stop-opacity:1.0000000;"
         offset="0.0000000"
         id="stop2063" />
      <stop
         style="stop-color:#acaca2;stop-opacity:1.0000000;"
         offset="1.0000000"
         id="stop2065" />
    </linearGradient>
    <linearGradient
       inkscape:collect="always"
       xlink:href="#linearGradient2149"
       id="linearGradient2248"
       x1="168.02652"
       y1="177.80896"
       x2="175.46834"
       y2="187.27158"
       gradientUnits="userSpaceOnUse"
       gradientTransform="matrix(0.871203,0.000000,0.000000,0.701723,22.17376,59.57820)" />
    <linearGradient
       inkscape:collect="always"
       xlink:href="#linearGradient2061"
       id="linearGradient1486"
       gradientUnits="userSpaceOnUse"
       gradientTransform="translate(3.455059,8.637410)"
       x1="139.16096"
       y1="94.329697"
       x2="178.63403"
       y2="78.999031" />
    <linearGradient
       inkscape:collect="always"
       xlink:href="#linearGradient2219"
       id="linearGradient1488"
       gradientUnits="userSpaceOnUse"
       gradientTransform="translate(3.455059,8.637410)"
       x1="159.69261"
       y1="107.14256"
       x2="177.93044"
       y2="101.18369" />
    <radialGradient
       inkscape:collect="always"
       xlink:href="#linearGradient2336"
       id="radialGradient1490"
       gradientUnits="userSpaceOnUse"
       gradientTransform="matrix(1.250677,0.409693,-0.310748,0.306975,-129.9032,-56.04547)"
       cx="177.89836"
       cy="81.263359"
       fx="177.89836"
       fy="81.263359"
       r="48.081535" />
    <linearGradient
       inkscape:collect="always"
       xlink:href="#linearGradient2149"
       id="linearGradient1504"
       gradientUnits="userSpaceOnUse"
       gradientTransform="matrix(0.871203,0.000000,0.000000,0.701723,22.17376,59.57817)"
       x1="165.48134"
       y1="151.14967"
       x2="165.69623"
       y2="161.26152" />
    <linearGradient
       inkscape:collect="always"
       xlink:href="#linearGradient2149"
       id="linearGradient1506"
       gradientUnits="userSpaceOnUse"
       gradientTransform="matrix(0.871203,0.000000,0.000000,0.701723,61.54862,61.29253)"
       x1="117.53442"
       y1="146.25320"
       x2="130.07159"
       y2="165.69151" />
    <linearGradient
       inkscape:collect="always"
       xlink:href="#linearGradient2061"
       id="linearGradient1627"
       gradientUnits="userSpaceOnUse"
       gradientTransform="translate(2.648758e-5,-7.518021e-5)"
       x1="169.20979"
       y1="199.73071"
       x2="175.47575"
       y2="145.19875" />
    <linearGradient
       inkscape:collect="always"
       xlink:href="#linearGradient2199"
       id="linearGradient1647"
       gradientUnits="userSpaceOnUse"
       gradientTransform="translate(6.836831e-7,3.973640e-6)"
       x1="90.305565"
       y1="127.13457"
       x2="118.94965"
       y2="174.46820" />
    <linearGradient
       inkscape:collect="always"
       xlink:href="#linearGradient2199"
       id="linearGradient1661"
       gradientUnits="userSpaceOnUse"
       x1="110.75051"
       y1="182.23775"
       x2="127.42838"
       y2="180.48279" />
    <linearGradient
       inkscape:collect="always"
       xlink:href="#linearGradient2061"
       id="linearGradient1674"
       gradientUnits="userSpaceOnUse"
       gradientTransform="translate(-8.483687e-6,2.046504e-5)"
       x1="166.05623"
       y1="135.81081"
       x2="71.922478"
       y2="90.422539" />
    <linearGradient
       inkscape:collect="always"
       xlink:href="#linearGradient2351"
       id="linearGradient2320"
       x1="7.4817743"
       y1="116.73119"
       x2="124.79790"
       y2="116.73119"
       gradientUnits="userSpaceOnUse" />
    <linearGradient
       inkscape:collect="always"
       xlink:href="#linearGradient2351"
       id="linearGradient2357"
       x1="131.71982"
       y1="209.92538"
       x2="162.05405"
       y2="183.94321"
       gradientUnits="userSpaceOnUse" />
    <linearGradient
       inkscape:collect="always"
       xlink:href="#linearGradient2061"
       id="linearGradient2196"
       gradientUnits="userSpaceOnUse"
       x1="159.34776"
       y1="76.478943"
       x2="174.63176"
       y2="88.584442"
       gradientTransform="matrix(1.145473,0.000000,0.000000,1.462615,-31.37238,-34.42964)" />
    <linearGradient
       inkscape:collect="always"
       xlink:href="#linearGradient2219"
       id="linearGradient2198"
       gradientUnits="userSpaceOnUse"
       x1="173.45551"
       y1="81.793907"
       x2="176.64714"
       y2="85.045227"
       gradientTransform="matrix(1.145473,0.000000,0.000000,1.462615,-31.37238,-34.42964)" />
    <linearGradient
       inkscape:collect="always"
       xlink:href="#linearGradient2219"
       id="linearGradient2940"
       gradientUnits="userSpaceOnUse"
       x1="105.95212"
       y1="239.81538"
       x2="186.38524"
       y2="210.10152" />
    <linearGradient
       inkscape:collect="always"
       xlink:href="#linearGradient5984"
       id="linearGradient6017"
       gradientUnits="userSpaceOnUse"
       gradientTransform="matrix(0.966467,-0.256791,0.256791,0.966467,-365.1412,98.44064)"
       x1="-12.668187"
       y1="191.35687"
       x2="99.042198"
       y2="174.65790" />
  </defs>
  <sodipodi:namedview
     inkscape:cy="166.27738"
     inkscape:cx="260.24841"
     inkscape:zoom="1.7366335"
     inkscape:window-height="933"
     inkscape:window-width="1182"
     inkscape:pageshadow="2"
     inkscape:pageopacity="0.0"
     borderopacity="1.0"
     bordercolor="#666666"
     pagecolor="#ffffff"
     id="base"
     inkscape:window-x="98"
     inkscape:window-y="36"
     inkscape:current-layer="svg2"
     fill="#cccc99" />
  <path
     d="M 145.30735,161.84968 C 142.59483,161.92655 140.60862,163.25289 140.31892,164.87565 C 139.65253,168.23394 143.72032,172.89420 148.35256,176.73435 C 154.91605,182.53253 157.88794,185.17364 161.10857,190.48064 C 163.31717,194.13314 161.69046,200.40790 159.53801,203.52385 C 155.63459,209.15344 144.24971,212.06467 132.55201,208.23130 C 124.96516,205.74781 123.71741,199.85917 119.53065,198.06575 C 113.26794,195.65284 107.17590,197.98030 102.27096,195.84630 C 92.887760,191.70507 94.522130,184.75246 89.333330,182.04461 C 85.229040,179.87037 82.534160,181.96149 79.284620,181.69780 C 74.584130,181.35663 70.070670,176.18279 70.861840,168.94954 C 71.243540,165.14875 72.753720,161.20428 78.868660,158.80536 C 76.512880,163.74072 77.250330,168.53094 84.489350,170.86131 C 87.878310,171.79518 91.715540,169.45455 95.837790,170.80709 C 101.90966,172.80376 100.05619,179.08066 102.35239,179.47328 C 104.45882,179.97495 110.51611,176.94917 111.19109,176.74592 C 111.88016,176.53833 114.19497,175.81032 119.11062,177.08283 C 121.92804,177.72437 127.28034,183.97041 128.94380,187.06185 C 130.33859,188.34198 126.47514,181.90573 123.84431,178.25674 C 121.92882,175.14641 144.80678,136.03677 156.31392,138.18460"
     id="path4497"
     style="font-size:12.000000px;fill:#808001;fill-rule:evenodd;stroke:none;stroke-width:1.7232858;stroke-linecap:round;stroke-linejoin:round"
     sodipodi:nodetypes="cccccccccccccccscccc"
     inkscape:export-filename="/home/chckens/img/projects/backup4.png"
     inkscape:export-xdpi="117.70976"
     inkscape:export-ydpi="117.70976" />
  <path
     d="M 135.97886,178.33298 C 140.64549,183.35114 147.10909,190.18963 143.37157,195.08352 C 141.11885,198.03350 137.51192,198.33729 134.18673,197.78043 C 127.68495,196.75582 127.31902,193.61826 119.40518,191.52507 C 112.81088,189.57989 108.91706,193.30184 101.43954,190.77028 C 96.252960,189.01961 95.728830,182.52162 87.377810,179.63760 C 82.670760,178.02135 75.171220,182.80954 71.172360,170.31081 C 70.070670,176.18279 74.584130,181.35663 79.284620,181.69780 C 82.534160,181.96149 85.229040,179.87037 89.333330,182.04461 C 94.522130,184.75246 92.887760,191.70507 102.27096,195.84630 C 107.17590,197.98030 113.26794,195.65284 119.53065,198.06575 C 123.71741,199.85917 124.96516,205.74781 132.55201,208.23130 C 144.24971,212.06467 155.63459,209.15344 159.53801,203.52385 C 161.69046,200.40790 163.31717,194.13314 161.10857,190.48064 C 157.88794,185.17364 154.91605,182.53253 148.35256,176.73435 C 143.72032,172.89420 139.65253,168.23394 140.31892,164.87565 C 140.60862,163.25289 142.59483,161.92655 145.30735,161.84968"
     id="path4499"
     style="font-size:12.000000px;fill:#53aa02;fill-rule:evenodd;stroke:#6c9201;stroke-width:0.41112575;stroke-linecap:round;stroke-linejoin:round"
     sodipodi:nodetypes="csccccccccccccccc"
     inkscape:export-filename="/home/chckens/img/projects/backup4.png"
     inkscape:export-xdpi="117.70976"
     inkscape:export-ydpi="117.70976" />
  <path
     d="M 141.49877,153.35430 C 141.03653,153.44974 127.14444,163.11221 127.58629,164.21899 C 130.74972,171.65197 141.01727,178.58652 144.34265,182.05031 C 148.93887,187.10497 151.11584,192.18272 147.45708,197.10896 C 143.61708,201.72412 137.62957,201.31297 134.30436,200.75612 C 127.80282,199.73157 126.51651,194.55039 118.60268,192.45720 C 112.00837,190.51202 108.21106,194.06723 100.73354,191.53567 C 95.546970,189.78500 96.110100,183.22546 87.759070,180.34143 C 83.052020,178.72518 73.413270,182.66730 71.172360,170.31081 C 70.070670,176.18279 74.584130,181.35663 79.284620,181.69780 C 82.534160,181.96149 85.229040,179.87037 89.333330,182.04461 C 94.522130,184.75246 92.887760,191.70507 102.27096,195.84630 C 107.17590,197.98030 113.26794,195.65284 119.53065,198.06575 C 123.71741,199.85917 124.96516,205.74781 132.55201,208.23130 C 144.24971,212.06467 155.63459,209.15344 159.53801,203.52385 C 161.69046,200.40790 163.31717,194.13314 161.10857,190.48064 C 157.88794,185.17364 154.91605,182.53253 148.35256,176.73435 C 143.72032,172.89420 139.65253,168.23394 140.31892,164.87565 C 140.60862,163.25289 142.59483,161.92655 145.30735,161.84968"
     id="path4501"
     style="font-size:12.000000px;fill:#04fb01;fill-rule:evenodd;stroke:#32cc01;stroke-width:0.41112575"
     sodipodi:nodetypes="ccccccccccccccccccc"
     inkscape:export-filename="/home/chckens/img/projects/backup4.png"
     inkscape:export-xdpi="117.70976"
     inkscape:export-ydpi="117.70976" />
  <path
     d="M 161.41950,199.78356 C 158.94360,200.42737 158.63962,200.45300 156.50293,200.10211 C 154.24542,199.93664 151.38411,198.02649 151.02252,198.21635 C 150.59605,198.44030 151.19478,201.58718 154.31321,202.52317 C 157.56835,203.69583 157.72458,203.24799 160.01544,202.66365"
     id="path4503"
     style="font-size:12.000000px;fill:#4da303;fill-rule:evenodd;stroke:#21dd01;stroke-width:0.43601745;stroke-linecap:round;stroke-linejoin:round"
     inkscape:export-filename="/home/chckens/img/projects/backup4.png"
     inkscape:export-xdpi="117.70976"
     inkscape:export-ydpi="117.70976" />
  <path
     d="M 153.90273,207.42862 C 151.41943,207.52497 151.64604,207.29163 149.70836,206.56327 C 147.61460,205.97748 145.34612,203.71275 144.96173,203.81262 C 144.50837,203.93042 144.38106,206.84547 147.09253,208.30615 C 148.80783,209.44885 150.18294,209.28734 150.81670,208.89939"
     id="path4505"
     style="font-size:12.000000px;fill:#4da303;fill-rule:evenodd;stroke:#21dd01;stroke-width:0.41112578;stroke-linecap:round;stroke-linejoin:round"
     inkscape:export-filename="/home/chckens/img/projects/backup4.png"
     inkscape:export-xdpi="117.70976"
     inkscape:export-ydpi="117.70976" />
  <path
     d="M 162.14885,192.16483 C 159.74918,192.67695 159.50399,192.64002 157.54535,191.94203 C 155.06213,191.25832 152.81468,189.65013 152.46947,189.81172 C 152.06230,190.00232 153.06442,192.92566 156.29158,194.10908 C 159.21581,195.00377 160.90939,195.47464 162.04308,195.07263"
     id="path4507"
     style="font-size:12.000000px;fill:#4da303;fill-rule:evenodd;stroke:#21dd01;stroke-width:0.41112575;stroke-linecap:round;stroke-linejoin:round"
     inkscape:export-filename="/home/chckens/img/projects/backup4.png"
     inkscape:export-xdpi="117.70976"
     inkscape:export-ydpi="117.70976" />
  <path
     d="M 156.61350,184.01478 C 156.58127,184.07048 155.01638,184.04665 152.97026,183.49597 C 150.70256,182.89520 149.09863,182.44500 148.75342,182.60659 C 148.34624,182.79719 148.81453,184.35689 151.90917,185.32965 C 154.91880,186.47263 155.95291,186.32450 158.45861,186.73151"
     id="path4509"
     style="font-size:12.000000px;fill:#4da303;fill-rule:evenodd;stroke:#21dd01;stroke-width:0.41112575;stroke-linecap:round;stroke-linejoin:round"
     inkscape:export-filename="/home/chckens/img/projects/backup4.png"
     inkscape:export-xdpi="117.70976"
     inkscape:export-ydpi="117.70976" />
  <path
     d="M 148.86837,176.95744 C 148.51608,177.11175 148.13825,176.84871 145.54516,176.33960 C 143.05373,175.66531 142.21721,175.25798 141.87200,175.41957 C 141.46483,175.61017 141.60768,177.29251 144.83485,178.47593 C 147.56398,179.65296 149.45275,179.84131 151.67370,179.37775"
     id="path4511"
     style="font-size:12.000000px;fill:#4da303;fill-rule:evenodd;stroke:#21dd01;stroke-width:0.41112575;stroke-linecap:round;stroke-linejoin:round"
     inkscape:export-filename="/home/chckens/img/projects/backup4.png"
     inkscape:export-xdpi="117.70976"
     inkscape:export-ydpi="117.70976" />
  <path
     d="M 141.70232,168.89992 C 141.47693,169.28884 140.51161,168.68491 138.47550,168.11551 C 135.76864,167.36385 135.69089,167.00291 135.34568,167.16450 C 134.93851,167.35510 135.14158,169.00524 138.21225,170.38767 C 140.84277,171.75791 142.57579,171.28384 143.10013,171.48074"
     id="path4513"
     style="font-size:12.000000px;fill:#4da303;fill-rule:evenodd;stroke:#21dd01;stroke-width:0.41112575;stroke-linecap:round;stroke-linejoin:round"
     inkscape:export-filename="/home/chckens/img/projects/backup4.png"
     inkscape:export-xdpi="117.70976"
     inkscape:export-ydpi="117.70976" />
  <path
     d="M 141.55172,162.80115 C 139.06723,162.85396 139.14919,162.35005 137.45078,161.63021 C 134.13943,159.79774 134.29209,159.01624 133.90480,159.10939 C 133.44800,159.21927 132.95989,161.60540 135.46444,163.25407 C 137.97385,164.92505 139.36151,164.93636 140.05580,164.68481"
     id="path4515"
     style="font-size:12.000000px;fill:#4da303;fill-rule:evenodd;stroke:#21dd01;stroke-width:0.41112551;stroke-linecap:round;stroke-linejoin:round"
     inkscape:export-filename="/home/chckens/img/projects/backup4.png"
     inkscape:export-xdpi="117.70976"
     inkscape:export-ydpi="117.70976" />
  <path
     d="M 143.43572,209.69863 C 141.01762,209.31313 138.41490,208.22114 136.81177,207.14035 C 135.00846,206.16784 133.63012,203.53190 133.22584,203.55470 C 132.74901,203.58160 132.04382,206.31328 134.32526,208.13015 C 136.63423,209.72019 136.88239,209.31847 139.11370,209.68452"
     id="path4517"
     style="font-size:12.000000px;fill:#4da303;fill-rule:evenodd;stroke:#21dd01;stroke-width:0.41112587;stroke-linecap:round;stroke-linejoin:round"
     inkscape:export-filename="/home/chckens/img/projects/backup4.png"
     inkscape:export-xdpi="117.70976"
     inkscape:export-ydpi="117.70976" />
  <path
     d="M 144.22009,161.91124 C 145.79000,158.53315 140.60862,163.25289 140.31892,164.87565 C 139.65253,168.23394 143.72032,172.89420 148.35256,176.73435 C 154.91605,182.53253 157.88794,185.17364 161.10857,190.48064 C 163.31717,194.13314 161.69046,200.40790 159.53801,203.52385 C 155.63459,209.15344 144.24971,212.06467 132.55201,208.23130 C 124.96516,205.74781 123.71741,199.85917 119.53065,198.06575 C 113.26794,195.65284 107.17590,197.98030 102.27096,195.84630 C 92.887760,191.70507 94.522130,184.75246 89.333330,182.04461 C 85.229040,179.87037 82.534160,181.96149 79.284620,181.69780 C 74.584130,181.35663 70.070670,176.18279 70.861840,168.94954 C 71.243540,165.14875 72.753720,161.20428 78.868660,158.80536 C 76.512880,163.74072 77.250330,168.53094 84.489350,170.86131 C 87.878310,171.79518 91.715540,169.45455 95.837790,170.80709 C 101.90966,172.80376 100.05619,179.08066 102.35239,179.47328 C 104.45882,179.97495 110.51611,176.94917 111.19109,176.74592 C 111.88016,176.53833 114.19497,175.81032 119.11062,177.08283 C 121.92804,177.72437 127.28034,183.97041 128.94380,187.06185 C 130.33859,188.34198 126.47514,181.90573 123.84431,178.25674 C 121.92882,175.14641 144.80678,136.03677 156.31392,138.18460"
     id="path4519"
     style="font-size:12.000000px;fill:none;fill-opacity:1.0000000;fill-rule:evenodd;stroke:#000000;stroke-width:0.89066452;stroke-linecap:round;stroke-linejoin:round;stroke-miterlimit:4.0000000;stroke-dasharray:none"
     sodipodi:nodetypes="cccccccccccccccscccc"
     inkscape:export-filename="/home/chckens/img/projects/backup4.png"
     inkscape:export-xdpi="117.70976"
     inkscape:export-ydpi="117.70976" />
  <g
     id="g4291"
     transform="translate(-130.7019,4.071710)"
     inkscape:export-filename="/home/chckens/img/projects/backup4.png"
     inkscape:export-xdpi="117.70976"
     inkscape:export-ydpi="117.70976">
    <path
       style="font-size:12.000000px;fill:#808001;fill-rule:evenodd;stroke:none;stroke-width:1.7232858;stroke-linecap:round;stroke-linejoin:round"
       id="path614"
       d="M 319.98377,149.48897 C 317.79538,149.56584 316.19296,150.89218 315.95924,152.51494 C 315.42161,155.87323 318.70340,160.53349 322.44057,164.37364 C 327.73582,170.17182 330.13346,172.81293 332.73178,178.11993 C 334.51362,181.77243 333.20123,188.04719 331.46469,191.16314 C 328.31552,196.79273 319.13050,199.70396 309.69310,195.87059 C 303.57223,193.38710 302.56558,187.49846 299.18781,185.70504 C 294.13522,183.29213 289.22033,185.61959 285.26315,183.48559 C 277.69303,179.34436 279.01160,172.39175 274.82541,169.68390 C 271.51418,167.50966 269.34002,169.60078 266.71838,169.33709 C 262.92615,168.99592 259.28481,163.82208 259.92310,156.58883 C 260.23105,152.78804 261.44942,148.84357 266.38279,146.44465 C 264.48221,151.38001 265.07717,156.17023 270.91742,158.50060 C 273.65154,159.43447 276.74732,157.09384 280.07304,158.44638 C 284.97166,160.44305 283.47633,166.71995 285.32885,167.11257 C 287.02826,167.61424 291.91512,164.58846 292.45968,164.38521 C 293.01560,164.17762 294.88313,163.44961 298.84894,164.72212 C 301.12196,165.36366 305.44006,171.60970 306.78209,174.70114 C 307.90737,175.98127 304.79044,169.54502 302.66796,165.89603 C 301.12259,162.78570 296.96528,158.29479 295.08742,151.00820 C 294.49878,149.10507 294.31936,145.84318 294.82259,143.53766 C 295.75156,139.43554 296.23496,137.06877 299.47878,132.46008 C 300.18893,131.46123 303.29321,128.34407 307.50977,126.72181 C 312.59311,124.90187 319.57993,123.67606 328.86358,125.82389" />
    <path
       style="font-size:12.000000px;fill:#53aa02;fill-rule:evenodd;stroke:#6c9201;stroke-width:0.36927551;stroke-linecap:round;stroke-linejoin:round"
       id="path611"
       d="M 316.89389,137.85109 C 316.52097,137.94654 309.78212,136.98668 306.15568,140.86286 C 302.85884,144.38668 302.97915,148.28655 303.39515,150.40716 C 304.14092,154.20837 309.83177,162.47198 312.45779,165.97227 C 316.22271,170.99043 321.43737,177.82892 318.42204,182.72281 C 316.60460,185.67279 313.69463,185.97658 311.01195,185.41972 C 305.76649,184.39511 305.47126,181.25755 299.08659,179.16436 C 293.76648,177.21918 290.62505,180.94113 284.59238,178.40957 C 280.40799,176.65890 279.98513,170.16091 273.24775,167.27689 C 269.45023,165.66064 263.39980,170.44883 260.17362,157.95010 C 259.28481,163.82208 262.92615,168.99592 266.71838,169.33709 C 269.34002,169.60078 271.51418,167.50966 274.82541,169.68390 C 279.01160,172.39175 277.69303,179.34436 285.26315,183.48559 C 289.22033,185.61959 294.13522,183.29213 299.18781,185.70504 C 302.56558,187.49846 303.57223,193.38710 309.69310,195.87059 C 319.13050,199.70396 328.31552,196.79273 331.46469,191.16314 C 333.20123,188.04719 334.51362,181.77243 332.73178,178.11993 C 330.13346,172.81293 327.73582,170.17182 322.44057,164.37364 C 318.70340,160.53349 315.42161,155.87323 315.95924,152.51494 C 316.19296,150.89218 317.79538,149.56584 319.98377,149.48897" />
    <path
       style="font-size:12.000000px;fill:#808001;fill-rule:evenodd;stroke:none;stroke-width:1.7230000;stroke-linecap:round;stroke-linejoin:round;stroke-miterlimit:4.0000000;stroke-dasharray:none;stroke-opacity:1.0000000"
       id="path567"
       d="M 352.25570,164.31791 C 352.16071,165.11361 352.76231,167.56752 352.22202,169.38627 C 351.60405,171.59355 350.97847,173.30524 347.28536,174.05296 C 343.88230,174.59108 339.43699,173.21599 336.12248,171.16102 C 331.01175,167.94873 325.76289,161.82906 322.85368,156.20111 C 320.09878,150.58857 314.78885,140.73998 317.23762,134.84476 C 319.00698,130.59906 323.86440,128.52835 326.64714,127.41231 C 328.97894,126.61731 330.99487,124.36025 331.60965,123.59751 C 332.44098,122.56608 335.34114,116.53393 338.62477,114.47942 C 339.67138,113.86330 343.60219,112.13794 347.55197,113.52945 C 350.81226,114.68243 350.93462,117.84337 352.25877,118.43836 C 353.08015,118.80027 356.26687,117.08887 358.29646,117.77217 C 362.05186,119.23644 362.52491,122.15212 362.55705,125.45297 C 362.51119,128.94084 360.62405,130.68469 358.96895,135.86176 C 358.55113,137.18895 358.35128,138.18638 359.03575,139.80677 C 360.77173,144.26773 364.65996,146.89907 365.47419,152.81584 C 365.86879,155.35953 364.72779,158.79770 362.64003,161.15623 C 360.15301,164.05626 357.51456,164.85094 353.06169,164.40877 C 347.85917,163.95301 341.76578,160.75700 337.70912,156.86263 C 332.74142,152.19893 330.69454,149.55360 326.65882,141.92075" />
    <path
       style="font-size:12.000000px;fill:#efff92;fill-opacity:0.99607801;fill-rule:evenodd;stroke:#000000;stroke-width:1.0670000;stroke-linecap:round;stroke-linejoin:round;stroke-miterlimit:4.0000000;stroke-dasharray:none;stroke-opacity:0.97647101"
       id="path570"
       d="M 347.99909,127.97977 C 346.59469,132.63211 348.14110,136.33073 351.93733,137.29000 C 355.73335,138.24921 359.23854,135.03372 360.39055,130.92213 C 361.54250,126.81072 359.87479,122.99197 356.49564,122.18976 C 352.69940,121.23049 349.27523,124.12698 347.99909,127.97977 z " />
    <path
       style="font-size:12.000000px;fill:#07137a;fill-rule:evenodd;stroke:#000000;stroke-width:0.45175767;stroke-linecap:round;stroke-linejoin:round;stroke-opacity:0.97647101"
       id="path574"
       d="M 349.29994,128.43344 C 348.65615,130.71629 349.58333,132.58431 351.65849,133.13656 C 353.73352,133.68877 355.54810,132.16155 356.06888,130.14226 C 356.58964,128.12306 355.59394,126.19296 353.74805,125.72705 C 351.67290,125.17480 349.89421,126.54518 349.29994,128.43344 z " />
    <path
       style="font-size:12.000000px;fill:#efff92;fill-opacity:0.99607801;fill-rule:evenodd;stroke:#000000;stroke-width:1.1670001;stroke-linecap:round;stroke-linejoin:round;stroke-miterlimit:4.0000000;stroke-dasharray:none;stroke-opacity:0.97647101"
       id="path571"
       d="M 338.37279,124.56618 C 336.96839,129.21852 338.51480,132.91714 342.31103,133.87641 C 346.10705,134.83562 349.61224,131.62013 350.76425,127.50854 C 351.91620,123.39713 350.24849,119.57838 346.86934,118.77617 C 343.07310,117.81690 339.64893,120.71339 338.37279,124.56618 z " />
    <path
       style="font-size:12.000000px;fill:#07137a;fill-rule:evenodd;stroke:#000000;stroke-width:0.45175767;stroke-linecap:round;stroke-linejoin:round;stroke-opacity:0.97647101"
       id="path573"
       d="M 339.25874,124.65167 C 338.61495,126.93452 339.54213,128.80254 341.61729,129.35479 C 343.69232,129.90700 345.50690,128.37978 346.02768,126.36049 C 346.54844,124.34129 345.55274,122.41119 343.70685,121.94528 C 341.63170,121.39303 339.85301,122.76341 339.25874,124.65167 z " />
    <ellipse
       transform="matrix(-0.203311,-2.527119e-2,-3.173542e-2,0.186838,414.4397,78.34653)"
       style="font-size:12.000000px;fill-rule:evenodd;stroke-width:1.0000000pt"
       ry="11.456268"
       rx="5.7281270"
       id="path578"
       cy="421.31271"
       cx="205.25815"
       sodipodi:cx="205.25815"
       sodipodi:cy="421.31271"
       sodipodi:rx="5.7281270"
       sodipodi:ry="11.456268" />
    <ellipse
       transform="matrix(-0.203311,-2.527119e-2,-3.173542e-2,0.186838,406.1673,75.62295)"
       style="font-size:12.000000px;fill-rule:evenodd;stroke-width:1.0000000pt"
       ry="11.456268"
       rx="5.7281270"
       id="path580"
       cy="421.31271"
       cx="205.25815"
       sodipodi:cx="205.25815"
       sodipodi:cy="421.31271"
       sodipodi:rx="5.7281270"
       sodipodi:ry="11.456268" />
    <path
       style="font-size:12.000000px;fill:#53aa02;stroke-width:1.2500000;stroke-linecap:round;stroke-linejoin:round"
       id="path606"
       d="M 326.65882,141.92075 C 330.69454,149.55360 332.74142,152.19893 337.70912,156.86263 C 341.76578,160.75700 347.85917,163.95301 353.06169,164.40877 C 357.51456,164.85094 360.15301,164.05626 362.64003,161.15623 C 364.72779,158.79770 365.86879,155.35953 364.98247,153.41450 C 364.26896,154.23121 359.63144,157.14169 353.60059,155.98778 C 348.71188,155.08028 345.45799,152.31891 342.44965,149.43609 C 339.28695,146.28819 337.96141,144.28799 335.74166,140.63748 C 334.18531,137.84944 317.47068,139.12975 317.50548,140.62945 C 317.02732,142.75902 320.09878,150.58857 322.85368,156.20111 C 325.76289,161.82906 331.01175,167.94873 336.12248,171.16102 C 339.43699,173.21599 343.88230,174.59108 347.28536,174.05296 C 350.97847,173.30524 351.60405,171.59355 352.22202,169.38627 C 352.76231,167.56752 352.16071,165.11361 352.25570,164.31791 M 326.65882,141.92075 C 330.69454,149.55360 332.74142,152.19893 337.70912,156.86263 C 341.76578,160.75700 347.85917,163.95301 353.06169,164.40877 C 357.51456,164.85094 360.15301,164.05626 362.64003,161.15623 C 364.72779,158.79770 365.86879,155.35953 364.98247,153.41450 C 364.26896,154.23121 359.63144,157.14169 353.60059,155.98778 C 348.71188,155.08028 345.45799,152.31891 342.44965,149.43609 C 339.28695,146.28819 337.96141,144.28799 335.74166,140.63748 C 334.18531,137.84944 332.02739,135.49755 329.72278,134.45076 C 327.30049,133.33439 324.19632,133.36137 322.21752,134.17210 C 319.66447,135.35289 317.81053,137.49378 317.47719,141.59871 C 316.99903,143.72828 320.09878,150.58857 322.85368,156.20111 C 325.76289,161.82906 331.01175,167.94873 336.12248,171.16102 C 339.43699,173.21599 343.88230,174.59108 347.28536,174.05296 C 350.97847,173.30524 351.60405,171.59355 352.22202,169.38627 C 352.76231,167.56752 352.16071,165.11361 351.85543,165.62891 C 350.83731,167.13076 348.67086,167.60022 346.16784,166.90840 C 342.41402,165.90029 336.05545,161.12130 333.52851,157.64005 C 328.49340,150.70392 326.32049,142.52585 326.03986,141.88369" />
    <path
       style="font-size:12.000000px;fill:#04fb01;stroke-width:1.8750000;stroke-linecap:round;stroke-linejoin:round"
       id="path600"
       d="M 326.65882,141.92075 C 330.69454,149.55360 332.74142,152.19893 337.70912,156.86263 C 341.76578,160.75700 347.85917,163.95301 353.06169,164.40877 C 357.51456,164.85094 360.15301,164.05626 362.64003,161.15623 C 364.72779,158.79770 364.95955,157.76096 364.07323,155.81593 C 363.35972,156.63264 359.31648,159.17916 353.28563,158.02525 C 348.39692,157.11775 345.45052,155.05997 342.44218,152.17715 C 339.27948,149.02925 318.95925,141.84647 318.37518,143.30895 C 317.89702,145.43853 320.09878,150.58857 322.85368,156.20111 C 325.76289,161.82906 331.01175,167.94873 336.12248,171.16102 C 339.43699,173.21599 343.88230,174.59108 347.28536,174.05296 C 350.97847,173.30524 351.60405,171.59355 352.22202,169.38627 C 352.76231,167.56752 352.16071,165.11361 352.25570,164.31791 M 326.65882,141.92075 C 330.69454,149.55360 332.74142,152.19893 337.70912,156.86263 C 341.76578,160.75700 347.85917,163.95301 353.06169,164.40877 C 357.51456,164.85094 360.15301,164.05626 362.64003,161.15623 C 364.72779,158.79770 366.07004,157.19929 365.18372,155.25426 C 361.73245,157.39181 358.28358,159.57420 352.25274,158.42029 C 347.36402,157.51279 345.08977,154.92430 342.08142,152.04149 C 338.91873,148.89359 336.53559,146.88699 334.31584,143.23648 C 332.75948,140.44844 331.88889,138.97352 329.58429,137.92673 C 327.16199,136.81036 324.16047,137.07186 322.18167,137.88259 C 319.62862,139.06338 318.65845,140.12381 318.19502,143.24090 C 317.87551,145.38895 320.09878,150.58857 322.85368,156.20111 C 325.76289,161.82906 331.01175,167.94873 336.12248,171.16102 C 339.43699,173.21599 343.88230,174.59108 347.28536,174.05296 C 350.97847,173.30524 351.60405,171.59355 352.22202,169.38627 C 352.76231,167.56752 352.16071,165.11361 351.85543,165.62891 C 350.83731,167.13076 348.67086,167.60022 346.16784,166.90840 C 342.41402,165.90029 336.05545,161.12130 333.52851,157.64005 C 328.49340,150.70392 326.32049,142.52585 326.03986,141.88369" />
    <path
       style="font-size:12.000000px;fill:#53aa02;fill-rule:evenodd;stroke:#2ad401;stroke-width:0.24618368;stroke-linecap:round;stroke-linejoin:round"
       id="path617"
       d="M 325.42468,140.47602 C 328.56014,139.24071 329.21931,147.93247 337.70912,156.86263 C 341.76578,160.75700 352.16071,165.11361 351.85543,165.62891 C 351.16591,169.60647 348.56468,170.09593 346.05790,169.41501 C 342.30784,168.39600 337.67037,167.28112 332.36105,160.14009 C 326.35479,152.33356 324.07021,141.14865 325.42468,140.47602 z " />
    <path
       style="font-size:12.000000px;fill-rule:evenodd;stroke-width:1.2500000;stroke-linecap:round;stroke-linejoin:round;stroke-opacity:0.97600001"
       id="path602"
       d="M 326.03986,141.88369 C 330.69454,149.55360 332.74142,152.19893 337.70912,156.86263 C 341.76578,160.75700 347.85917,163.95301 353.06169,164.40877 C 357.51456,164.85094 352.16071,165.11361 351.85543,165.62891 C 350.83731,167.13076 348.67086,167.60022 346.16784,166.90840 C 342.41402,165.90029 336.05545,161.12130 333.52851,157.64005 C 328.49340,150.70392 327.36684,146.64392 326.03986,141.88369 z M 353.06169,164.40877 C 357.51456,164.85094 352.16071,165.11361 352.25570,164.31791" />
    <path
       style="font-size:12.000000px;fill:none;fill-rule:evenodd;stroke:#000000;stroke-width:1.0230000;stroke-linecap:round;stroke-linejoin:round;stroke-miterlimit:4.0000000;stroke-dasharray:none;stroke-opacity:1.0000000"
       id="path605"
       d="M 352.25570,164.31791 C 352.16071,165.11361 352.76231,167.56752 352.22202,169.38627 C 351.60405,171.59355 350.97847,173.30524 347.28536,174.05296 C 343.88230,174.59108 339.43699,173.21599 336.12248,171.16102 C 331.01175,167.94873 325.76289,161.82906 322.85368,156.20111" />
    <path
       style="font-size:12.000000px;fill:#ff0000;fill-rule:evenodd;stroke:#000000;stroke-width:0.19694694pt"
       id="path586"
       d="M 338.84062,158.07283 C 338.87983,158.48507 342.94736,163.93275 344.51598,167.26638 C 345.97962,170.08171 346.84848,171.14927 347.36217,173.43415 C 347.50468,174.38254 347.61637,176.48544 347.35083,177.54600 C 347.32177,178.45030 346.71618,179.82420 345.17159,182.21320 C 345.78348,181.93142 346.67836,181.25631 347.67935,180.02189 C 348.65674,178.89129 349.67760,177.31697 350.16286,177.42911 C 350.74791,177.56446 352.79878,180.90439 352.96344,181.42382 C 353.29203,182.45995 353.01062,182.68532 353.19317,182.29440 C 353.21380,182.25022 353.10413,182.51503 353.11539,182.46096 C 353.37072,181.24052 353.34395,180.63752 353.20072,179.55316 C 353.11716,178.92097 352.21118,175.65932 351.94935,174.96595 C 351.12208,172.40159 350.82966,171.56489 349.92715,169.30437 C 348.69282,166.57459 346.97466,163.60592 347.00308,163.30291" />
    <path
       style="font-size:12.000000px;fill:#04fb01;fill-rule:evenodd;stroke:#32cc01;stroke-width:0.36927551"
       id="path616"
       d="M 316.91111,140.99359 C 316.53819,141.08903 311.16382,139.69251 307.46390,143.51146 C 304.24053,147.09251 305.33042,150.75150 305.68689,151.85828 C 308.23906,159.29126 316.52265,166.22581 319.20548,169.68960 C 322.91359,174.74426 324.66991,179.82201 321.71812,184.74825 C 318.62011,189.36341 313.78954,188.95226 311.10685,188.39541 C 305.86158,187.37086 304.82382,182.18968 298.43915,180.09649 C 293.11904,178.15131 290.05547,181.70652 284.02280,179.17496 C 279.83841,177.42429 280.29273,170.86475 273.55534,167.98072 C 269.75782,166.36447 261.98153,170.30659 260.17362,157.95010 C 259.28481,163.82208 262.92615,168.99592 266.71838,169.33709 C 269.34002,169.60078 271.51418,167.50966 274.82541,169.68390 C 279.01160,172.39175 277.69303,179.34436 285.26315,183.48559 C 289.22033,185.61959 294.13522,183.29213 299.18781,185.70504 C 302.56558,187.49846 303.57223,193.38710 309.69310,195.87059 C 319.13050,199.70396 328.31552,196.79273 331.46469,191.16314 C 333.20123,188.04719 334.51362,181.77243 332.73178,178.11993 C 330.13346,172.81293 327.73582,170.17182 322.44057,164.37364 C 318.70340,160.53349 315.42161,155.87323 315.95924,152.51494 C 316.19296,150.89218 317.79538,149.56584 319.98377,149.48897" />
    <path
       style="font-size:12.000000px;fill:none;fill-rule:evenodd;stroke:#000000;stroke-width:1.0230000;stroke-linecap:round;stroke-linejoin:round;stroke-miterlimit:4.0000000;stroke-dasharray:none;stroke-opacity:0.97600001"
       id="path604"
       d="M 322.85368,156.20111 C 320.09878,150.58857 314.78885,140.73998 317.23762,134.84476 C 319.00698,130.59906 323.86440,128.52835 326.64714,127.41231 C 328.97894,126.61731 330.99487,124.36025 331.60965,123.59751 C 332.44098,122.56608 335.34114,116.53393 338.62477,114.47942 C 339.67138,113.86330 343.60219,112.13794 347.55197,113.52945 C 350.81226,114.68243 350.93462,117.84337 352.25877,118.43836 C 353.08015,118.80027 356.26687,117.08887 358.29646,117.77217 C 362.05186,119.23644 362.52491,122.15212 362.55705,125.45297 C 362.51119,128.94084 360.62405,130.68469 358.96895,135.86176 C 358.55113,137.18895 358.35128,138.18638 359.03575,139.80677 C 360.77173,144.26773 364.65996,146.89907 365.47419,152.81584 C 365.86879,155.35953 364.72779,158.79770 362.64003,161.15623 C 360.15301,164.05626 357.51456,164.85094 353.06169,164.40877 C 347.85917,163.95301 341.76578,160.75700 337.70912,156.86263 C 332.74142,152.19893 330.69454,149.55360 326.65882,141.92075" />
    <path
       style="font-size:12.000000px;fill:#4da303;fill-rule:evenodd;stroke:#21dd01;stroke-width:0.39163339;stroke-linecap:round;stroke-linejoin:round"
       id="path619"
       d="M 332.98263,187.42285 C 330.98514,188.06666 330.73990,188.09229 329.01607,187.74140 C 327.19477,187.57593 324.88634,185.66578 324.59462,185.85564 C 324.25056,186.07959 324.73360,189.22647 327.24946,190.16246 C 329.87562,191.33512 330.00167,190.88728 331.84987,190.30294" />
    <path
       style="font-size:12.000000px;fill:#4da303;fill-rule:evenodd;stroke:#21dd01;stroke-width:0.36927554;stroke-linecap:round;stroke-linejoin:round"
       id="path620"
       d="M 326.91830,195.06791 C 324.91484,195.16426 325.09766,194.93092 323.53439,194.20256 C 321.84520,193.61677 320.01505,191.35204 319.70494,191.45191 C 319.33918,191.56971 319.23647,194.48476 321.42401,195.94544 C 322.80787,197.08814 323.91727,196.92663 324.42857,196.53868" />
    <path
       style="font-size:12.000000px;fill:#4da303;fill-rule:evenodd;stroke:#21dd01;stroke-width:0.36927551;stroke-linecap:round;stroke-linejoin:round"
       id="path621"
       d="M 333.57105,179.80412 C 331.63506,180.31624 331.43725,180.27931 329.85707,179.58132 C 327.85367,178.89761 326.04049,177.28942 325.76198,177.45101 C 325.43349,177.64161 326.24197,180.56495 328.84556,181.74837 C 331.20475,182.64306 332.57109,183.11393 333.48572,182.71192" />
    <path
       style="font-size:12.000000px;fill:#4da303;fill-rule:evenodd;stroke:#21dd01;stroke-width:0.36927551;stroke-linecap:round;stroke-linejoin:round"
       id="path622"
       d="M 329.10528,171.65407 C 329.07927,171.70977 327.81676,171.68594 326.16601,171.13526 C 324.33649,170.53449 323.04248,170.08429 322.76397,170.24588 C 322.43547,170.43648 322.81327,171.99618 325.30995,172.96894 C 327.73804,174.11192 328.57233,173.96379 330.59386,174.37080" />
    <path
       style="font-size:12.000000px;fill:#4da303;fill-rule:evenodd;stroke:#21dd01;stroke-width:0.36927551;stroke-linecap:round;stroke-linejoin:round"
       id="path623"
       d="M 322.85671,164.59673 C 322.57249,164.75104 322.26767,164.48800 320.17563,163.97889 C 318.16561,163.30460 317.49073,162.89727 317.21222,163.05886 C 316.88373,163.24946 316.99898,164.93180 319.60257,166.11522 C 321.80436,167.29225 323.32817,167.48060 325.11998,167.01704" />
    <path
       style="font-size:12.000000px;fill:#4da303;fill-rule:evenodd;stroke:#21dd01;stroke-width:0.36927551;stroke-linecap:round;stroke-linejoin:round"
       id="path624"
       d="M 317.07533,156.53921 C 316.89349,156.92813 316.11470,156.32420 314.47202,155.75480 C 312.28819,155.00314 312.22547,154.64220 311.94696,154.80379 C 311.61847,154.99439 311.78230,156.64453 314.25963,158.02696 C 316.38187,159.39720 317.78002,158.92313 318.20305,159.12003" />
    <path
       style="font-size:12.000000px;fill:#4da303;fill-rule:evenodd;stroke:#21dd01;stroke-width:0.36927530;stroke-linecap:round;stroke-linejoin:round"
       id="path625"
       d="M 316.95383,150.44044 C 314.94941,150.49325 315.01553,149.98934 313.64530,149.26950 C 310.97379,147.43703 311.09695,146.65553 310.78450,146.74868 C 310.41596,146.85856 310.02217,149.24469 312.04277,150.89336 C 314.06730,152.56434 315.18683,152.57565 315.74696,152.32410" />
    <path
       style="font-size:12.000000px;fill:#4da303;fill-rule:evenodd;stroke:#21dd01;stroke-width:0.36927563;stroke-linecap:round;stroke-linejoin:round"
       id="path626"
       d="M 318.47379,197.33792 C 316.52293,196.95242 314.42313,195.86043 313.12976,194.77964 C 311.67490,193.80713 310.56289,191.17119 310.23673,191.19399 C 309.85204,191.22089 309.28311,193.95257 311.12371,195.76944 C 312.98653,197.35948 313.18674,196.95776 314.98690,197.32381" />
    <path
       style="font-size:12.000000px;fill:none;fill-opacity:1.0000000;fill-rule:evenodd;stroke:#000000;stroke-width:0.80000001;stroke-linecap:round;stroke-linejoin:round;stroke-miterlimit:4.0000000;stroke-dasharray:none"
       id="path615"
       d="M 319.10660,149.55053 C 316.91820,149.62740 316.19296,150.89218 315.95924,152.51494 C 315.42161,155.87323 318.70340,160.53349 322.44057,164.37364 C 327.73582,170.17182 330.13346,172.81293 332.73178,178.11993 C 334.51362,181.77243 333.20123,188.04719 331.46469,191.16314 C 328.31552,196.79273 319.13050,199.70396 309.69310,195.87059 C 303.57223,193.38710 302.56558,187.49846 299.18781,185.70504 C 294.13522,183.29213 289.22033,185.61959 285.26315,183.48559 C 277.69303,179.34436 279.01160,172.39175 274.82541,169.68390 C 271.51418,167.50966 269.34002,169.60078 266.71838,169.33709 C 262.92615,168.99592 259.28481,163.82208 259.92310,156.58883 C 260.23105,152.78804 261.44942,148.84357 266.38279,146.44465 C 264.48221,151.38001 265.07717,156.17023 270.91742,158.50060 C 273.65154,159.43447 276.74732,157.09384 280.07304,158.44638 C 284.97166,160.44305 283.47633,166.71995 285.32885,167.11257 C 287.02826,167.61424 291.91512,164.58846 292.45968,164.38521 C 293.01560,164.17762 294.88313,163.44961 298.84894,164.72212 C 301.12196,165.36366 305.44006,171.60970 306.78209,174.70114 C 307.90737,175.98127 304.79044,169.54502 302.66796,165.89603 C 301.12259,162.78570 296.96528,158.29479 295.08742,151.00820 C 294.49878,149.10507 294.31936,145.84318 294.82259,143.53766 C 295.75156,139.43554 296.23496,137.06877 299.47878,132.46008 C 300.18893,131.46123 303.29321,128.34407 307.50977,126.72181 C 312.59311,124.90187 319.57993,123.67606 328.86358,125.82389" />
  </g>
  <path
     style="fill:url(#linearGradient2940);fill-opacity:1.0;fill-rule:evenodd;stroke:none;stroke-width:0.25000000pt;stroke-linecap:butt;stroke-linejoin:miter;stroke-opacity:1.0000000"
     d="M 113.14996,205.75252 C 121.65795,204.28910 138.83087,212.63931 152.17845,215.27381 C 162.21081,215.53563 172.51789,215.31960 182.19072,212.44103 C 188.50716,210.21311 194.43678,207.06413 200.38771,204.02505 C 206.71734,203.28184 207.78241,207.90330 202.46797,207.13647 C 179.54770,230.46835 104.26467,214.08350 113.14996,205.75252 z "
     id="path2200"
     sodipodi:nodetypes="cccccc"
     inkscape:export-filename="/home/chckens/img/projects/backup4.png"
     inkscape:export-xdpi="117.70976"
     inkscape:export-ydpi="117.70976" />
  <path
     style="fill:#636540;fill-opacity:1.0000000;fill-rule:evenodd;stroke:#000000;stroke-width:0.25000000pt;stroke-linecap:butt;stroke-linejoin:miter;stroke-opacity:1.0000000"
     d="M 179.08211,102.82386 C 164.11062,84.973232 165.26227,82.669924 172.17219,81.518270 C 179.08211,80.366617 176.77882,74.608350 186.56787,72.305043 C 196.35693,70.001736 182.28234,75.204639 191.92744,72.469461 C 180.69889,68.734005 190.59866,68.274255 168.71724,72.880869 C 146.83583,77.487483 144.23772,81.058615 133.22556,85.339480 C 113.39401,93.048789 112.11756,117.55684 112.11756,117.55684 L 179.08211,102.82386 z "
     id="path2372"
     sodipodi:nodetypes="csscsscc"
     inkscape:export-filename="/home/chckens/img/projects/backup4.png"
     inkscape:export-xdpi="117.70976"
     inkscape:export-ydpi="117.70976" />
  <path
     style="fill:#8e8e8e;fill-opacity:1.0000000;fill-rule:evenodd;stroke:#000000;stroke-width:0.25000000pt;stroke-linecap:butt;stroke-linejoin:miter;stroke-opacity:1.0000000"
     d="M 104.97426,191.19727 C 108.94660,191.28940 111.41221,196.47339 116.74057,195.29139 C 116.24062,196.78437 116.48184,198.50890 115.48543,199.80811 C 114.29529,201.35979 107.84109,196.65977 104.66781,194.02384 C 102.90027,192.83211 103.07413,191.19727 104.97426,191.19727 z "
     id="path2071"
     sodipodi:nodetypes="ccscc"
     inkscape:export-filename="/home/chckens/img/projects/backup4.png"
     inkscape:export-xdpi="117.70976"
     inkscape:export-ydpi="117.70976" />
  <path
     style="fill:#bcba98;fill-opacity:1.0000000;fill-rule:evenodd;stroke:#000000;stroke-width:0.58700000;stroke-linecap:butt;stroke-linejoin:miter;stroke-miterlimit:4.0000000;stroke-dasharray:none;stroke-opacity:1.0000000"
     d="M 107.55102,117.42771 C 100.42552,118.24205 97.213944,124.48792 94.457680,128.35446 C 86.741598,139.17872 86.648538,155.68587 88.484498,169.48694 C 90.320458,183.28802 104.32259,197.19830 104.32259,197.19830 C 104.32259,197.19830 106.74267,193.23737 106.74267,191.20151 C 106.74267,188.89820 89.252103,157.46199 101.14706,132.59781 C 103.73318,127.19201 108.42324,125.63500 113.30929,121.56329 C 118.19534,117.49158 122.26756,112.78017 119.30110,114.03662 C 116.33464,115.29306 107.55102,117.42771 107.55102,117.42771 z "
     id="path2069"
     sodipodi:nodetypes="csscssscc"
     inkscape:export-filename="/home/chckens/img/projects/backup4.png"
     inkscape:export-xdpi="117.70976"
     inkscape:export-ydpi="117.70976" />
  <path
     style="opacity:1.0000000;fill:url(#linearGradient2320);fill-opacity:1.0000000;fill-rule:evenodd;stroke:none;stroke-width:1.0000000pt;stroke-linecap:butt;stroke-linejoin:miter;stroke-opacity:1.0000000"
     d="M 110.65846,123.38348 C 111.59823,122.93980 111.83963,118.86737 111.90213,116.80816 C 111.59364,116.34119 103.88965,118.15243 104.75077,118.13031 C 103.47755,118.86364 101.63060,119.45221 100.53260,120.40390 C 98.980605,123.19373 93.909439,125.80491 100.51854,122.61433 C 101.71763,122.87356 102.95754,122.93413 104.18121,122.97280 C 105.87712,122.81431 107.66763,121.93273 109.32367,122.73715 C 109.96142,123.03310 110.02157,123.08631 110.65846,123.38348 z "
     id="path2303"
     sodipodi:nodetypes="cccccccc"
     inkscape:export-filename="/home/chckens/img/projects/backup4.png"
     inkscape:export-xdpi="117.70976"
     inkscape:export-ydpi="117.70976" />
  <path
     style="fill:url(#linearGradient1674);fill-opacity:1.0000000;fill-rule:evenodd;stroke:#000000;stroke-width:0.33020058pt;stroke-linecap:butt;stroke-linejoin:miter;stroke-opacity:1.0000000"
     d="M 113.48098,114.45708 C 118.97886,123.51251 117.54604,118.46524 127.75985,124.95158 C 133.31662,128.48044 134.43078,134.27203 140.11117,134.27656 C 146.95386,134.28200 152.12299,131.56080 160.33664,134.14608 C 167.17665,136.29900 169.62919,128.82538 178.06354,130.78254 C 184.55621,132.28913 196.38369,126.54706 200.22392,122.29031 C 200.33001,114.36941 202.44623,114.81582 200.27480,109.03486 C 193.55247,98.681356 174.08803,100.70110 164.13297,100.44418 C 149.53123,99.870369 147.59690,105.44900 132.98930,104.86615 C 129.73465,104.68675 114.09061,114.17983 113.48098,114.45708 z "
     id="path2059"
     sodipodi:nodetypes="cssssccccc"
     inkscape:export-filename="/home/chckens/img/projects/backup4.png"
     inkscape:export-xdpi="117.70976"
     inkscape:export-ydpi="117.70976" />
  <g
     id="g2323"
     transform="translate(-3.454959,-8.637400)"
     inkscape:export-filename="/home/chckens/img/projects/backup4.png"
     inkscape:export-xdpi="117.70976"
     inkscape:export-ydpi="117.70976">
    <path
       sodipodi:nodetypes="csscccc"
       id="path2229"
       d="M 156.05385,99.976587 C 153.55216,100.96422 153.32473,104.14661 151.96016,106.78031 C 150.59560,109.41401 150.48189,109.52375 148.66247,110.84060 C 146.84305,112.15745 152.86988,116.32747 152.86988,116.32747 L 157.75957,116.54694 L 159.23785,112.37692 L 156.05385,99.976587 z "
       style="fill:url(#linearGradient1486);fill-opacity:1.0000000;fill-rule:evenodd;stroke:none;stroke-width:0.25000000pt;stroke-linecap:butt;stroke-linejoin:miter;stroke-opacity:1.0000000" />
    <rect
       ry="2.5000000"
       rx="2.4999993"
       y="91.307327"
       x="147.41162"
       height="53.551888"
       width="54.127716"
       id="rect2273"
       style="opacity:1.0000000;fill:#3849f0;fill-opacity:1.0000000;fill-rule:nonzero;stroke:#000000;stroke-width:0.67500000;stroke-linecap:butt;stroke-linejoin:round;stroke-miterlimit:4.0000000;stroke-dasharray:none;stroke-dashoffset:0.0000000;stroke-opacity:1.0000000" />
    <rect
       ry="2.5000000"
       rx="2.4999993"
       y="91.746277"
       x="159.69270"
       height="18.874846"
       width="30.020414"
       id="rect2275"
       style="opacity:1.0000000;fill:url(#linearGradient1488);fill-opacity:1.0000000;fill-rule:nonzero;stroke:#000000;stroke-width:0.11200000;stroke-linecap:butt;stroke-linejoin:round;stroke-miterlimit:4.0000000;stroke-dasharray:none;stroke-dashoffset:0.0000000;stroke-opacity:1.0000000" />
    <rect
       y="94.818924"
       x="177.88689"
       height="13.607446"
       width="7.7325311"
       id="rect2287"
       style="opacity:1.0000000;fill:#3849f0;fill-opacity:1.0000000;fill-rule:nonzero;stroke:#000000;stroke-width:0.11200000;stroke-linecap:butt;stroke-linejoin:round;stroke-miterlimit:4.0000000;stroke-dasharray:none;stroke-dashoffset:0.0000000;stroke-opacity:1.0000000" />
    <rect
       rx="2.8791332"
       ry="5.7582674"
       y="114.57167"
       x="154.68929"
       height="25.898045"
       width="39.572365"
       id="rect2289"
       style="opacity:1.0000000;fill:#ffffff;fill-opacity:1.0000000;fill-rule:nonzero;stroke:#000000;stroke-width:0.11200000;stroke-linecap:butt;stroke-linejoin:round;stroke-miterlimit:4.0000000;stroke-dasharray:none;stroke-dashoffset:0.0000000;stroke-opacity:1.0000000" />
  </g>
  <path
     sodipodi:type="arc"
     style="opacity:1.0000000;fill:url(#radialGradient1490);fill-opacity:1.0000000;fill-rule:nonzero;stroke:#000000;stroke-width:0.31856865;stroke-linecap:butt;stroke-linejoin:round;stroke-miterlimit:4.0000000;stroke-dasharray:none;stroke-dashoffset:0.0000000;stroke-opacity:1.0000000"
     id="path2334"
     sodipodi:cx="55.567284"
     sodipodi:cy="50.711540"
     sodipodi:rx="48.081535"
     sodipodi:ry="27.351770"
     d="M 103.64882,50.711540 A 48.081535,27.351770 0 1 1 103.64862,50.633317"
     sodipodi:start="0.0000000"
     sodipodi:end="6.2803254"
     sodipodi:open="true"
     transform="matrix(0.587055,0.000000,0.000000,1.031990,115.9422,67.76490)"
     inkscape:export-filename="/home/chckens/img/projects/backup4.png"
     inkscape:export-xdpi="117.70976"
     inkscape:export-ydpi="117.70976" />
  <path
     sodipodi:nodetypes="csscsc"
     id="path2540"
     d="M 195.50356,131.86812 C 202.05205,130.64527 206.55197,136.32855 208.43864,145.83983 C 212.81697,167.91232 206.25801,180.42259 203.80075,180.24332 C 201.34351,180.06404 196.89170,170.97670 195.25668,162.33968 C 194.18992,156.70448 194.46518,149.10800 194.58005,142.87750 C 194.70264,136.22824 195.50356,131.86812 195.50356,131.86812 z "
     style="fill:#bcba98;fill-opacity:1.0000000;fill-rule:evenodd;stroke:#000000;stroke-width:0.79600000;stroke-linecap:butt;stroke-linejoin:miter;stroke-opacity:1.0000000;stroke-miterlimit:4.0000000;stroke-dasharray:none"
     inkscape:export-filename="/home/chckens/img/projects/backup4.png"
     inkscape:export-xdpi="117.70976"
     inkscape:export-ydpi="117.70976" />
  <path
     sodipodi:type="arc"
     style="opacity:1.0000000;fill:#ffebeb;fill-opacity:1.0000000;fill-rule:nonzero;stroke:#000000;stroke-width:0.21723821;stroke-linecap:butt;stroke-linejoin:round;stroke-miterlimit:4.0000000;stroke-dasharray:none;stroke-dashoffset:0.0000000;stroke-opacity:1.0000000"
     id="path2348"
     sodipodi:cx="48.945274"
     sodipodi:cy="65.395119"
     sodipodi:rx="13.244016"
     sodipodi:ry="12.668189"
     d="M 62.189290,65.395119 A 13.244016,12.668189 0 1 1 62.189236,65.358889"
     sodipodi:start="0.0000000"
     sodipodi:end="6.2803254"
     sodipodi:open="true"
     transform="matrix(0.680821,0.000000,0.000000,0.676131,115.0564,76.07767)"
     inkscape:export-filename="/home/chckens/img/projects/backup4.png"
     inkscape:export-xdpi="117.70976"
     inkscape:export-ydpi="117.70976" />
  <path
     sodipodi:type="arc"
     style="opacity:1.0000000;fill:#68685a;fill-opacity:1.0000000;fill-rule:nonzero;stroke:#000000;stroke-width:0.21723821;stroke-linecap:butt;stroke-linejoin:round;stroke-miterlimit:4.0000000;stroke-dasharray:none;stroke-dashoffset:0.0000000;stroke-opacity:1.0000000"
     id="path2350"
     sodipodi:cx="50.960667"
     sodipodi:cy="66.546776"
     sodipodi:rx="5.4703541"
     sodipodi:ry="5.1824408"
     d="M 56.431021,66.546776 A 5.4703541,5.1824408 0 1 1 56.430998,66.531955"
     sodipodi:start="0.0000000"
     sodipodi:end="6.2803254"
     sodipodi:open="true"
     transform="matrix(0.680821,0.000000,0.000000,0.676131,113.7785,75.46765)"
     inkscape:export-filename="/home/chckens/img/projects/backup4.png"
     inkscape:export-xdpi="117.70976"
     inkscape:export-ydpi="117.70976" />
  <path
     style="fill:#bcba98;fill-opacity:1.0000000;fill-rule:evenodd;stroke:#000000;stroke-width:0.71200000;stroke-linecap:butt;stroke-linejoin:miter;stroke-opacity:1.0000000;stroke-miterlimit:4.0000000;stroke-dasharray:none"
     d="M 112.57662,114.98712 C 112.57662,114.98712 116.98708,76.090300 152.22185,100.38683 C 156.11891,84.443293 203.08970,68.745293 203.08970,68.745293 C 175.16424,57.501860 109.21411,86.183101 112.57662,114.98712 z "
     id="path2374"
     sodipodi:nodetypes="cccc"
     inkscape:export-filename="/home/chckens/img/projects/backup4.png"
     inkscape:export-xdpi="117.70976"
     inkscape:export-ydpi="117.70976" />
  <path
     style="fill-opacity:1.0000000;fill-rule:evenodd;stroke:#000000;stroke-width:0.79900000;stroke-linecap:butt;stroke-linejoin:miter;stroke-miterlimit:4.0000000;stroke-dasharray:none;stroke-opacity:1.0000000;fill:#bcba98"
     d="M 111.01337,119.99639 C 112.64205,107.47659 119.79908,117.07390 128.63850,118.88404 C 156.26123,124.54064 174.65482,129.38178 199.33704,110.09068 C 202.87281,107.32720 200.59099,123.88185 200.18382,131.65277 C 199.77665,139.42368 203.03401,170.07561 204.25553,176.55138 C 205.47704,183.02713 205.25528,192.42776 205.25898,196.67373 C 205.27945,220.13394 142.00921,223.05514 113.69915,206.64636 C 111.97431,200.35163 111.42054,194.25179 111.42054,192.52491 C 111.42054,190.79805 111.01337,164.89500 110.60619,162.30469 C 110.19902,159.71439 109.38468,132.51619 111.01337,119.99639 z "
     id="path1313"
     sodipodi:nodetypes="cssssscsss"
     inkscape:export-filename="/home/chckens/img/projects/backup4.png"
     inkscape:export-xdpi="117.70976"
     inkscape:export-ydpi="117.70976" />
  <path
     style="fill:url(#linearGradient1661);fill-opacity:1.0000000;fill-rule:evenodd;stroke:none;stroke-width:0.25000000pt;stroke-linecap:butt;stroke-linejoin:miter;stroke-opacity:1.0000000"
     d="M 110.50776,129.69296 C 109.83738,142.70787 110.53457,175.66799 110.75051,184.14094 C 110.82884,187.21451 112.06009,205.45175 113.92355,206.61387 C 119.42036,210.04189 128.78506,213.28891 131.77944,213.34056 C 139.46924,212.84178 137.21663,207.41983 136.40229,200.83146 C 135.58794,194.24310 137.62380,188.09396 137.62380,181.50559 C 137.62380,174.91723 139.58980,149.69038 124.52446,136.51365 C 121.66049,134.00871 122.66895,118.45385 113.98530,114.67741 C 110.82201,113.30172 110.62702,126.89315 110.50776,129.69296 z "
     id="path2120"
     sodipodi:nodetypes="csscssssc"
     inkscape:export-filename="/home/chckens/img/projects/backup4.png"
     inkscape:export-xdpi="117.70976"
     inkscape:export-ydpi="117.70976" />
  <flowRoot
     xml:space="preserve"
     id="flowRoot2239"><flowRegion
       id="flowRegion2241"><rect
         id="rect2243"
         width="28.501970"
         height="19.544209"
         x="190.14886"
         y="81.666512" /></flowRegion><flowPara
       id="flowPara2245">1010</flowPara></flowRoot>  <path
     style="fill:none;fill-opacity:0.75000000;fill-rule:evenodd;stroke:#000000;stroke-width:0.25000000pt;stroke-linecap:butt;stroke-linejoin:miter;stroke-opacity:0.42662117"
     d="M 110.70993,123.73973 C 152.07729,139.01533 174.82544,138.40322 201.32130,122.28269"
     id="path2526"
     sodipodi:nodetypes="cc"
     inkscape:export-filename="/home/chckens/img/projects/backup4.png"
     inkscape:export-xdpi="117.70976"
     inkscape:export-ydpi="117.70976" />
  <path
     style="fill:#bcba98;fill-opacity:1.0000000;fill-rule:evenodd;stroke:#000000;stroke-width:0.64900000;stroke-linecap:butt;stroke-linejoin:miter;stroke-opacity:1.0000000;stroke-miterlimit:4.0000000;stroke-dasharray:none"
     d="M 117.03766,138.49150 C 107.38350,139.43436 109.35387,142.49867 107.59857,151.92732 C 105.84326,161.35598 104.19798,187.20149 116.00370,189.63802 C 123.01100,191.08422 124.72773,173.65527 120.30142,148.36212 C 119.22482,142.21015 117.03766,138.49150 117.03766,138.49150 z "
     id="path2528"
     sodipodi:nodetypes="csssc"
     inkscape:export-filename="/home/chckens/img/projects/backup4.png"
     inkscape:export-xdpi="117.70976"
     inkscape:export-ydpi="117.70976" />
  <path
     style="fill:url(#linearGradient1647);fill-opacity:1.0000000;fill-rule:evenodd;stroke:none;stroke-width:0.25000000pt;stroke-linecap:butt;stroke-linejoin:miter;stroke-opacity:1.0000000"
     d="M 109.18521,142.00324 C 112.69582,142.23896 117.40883,149.72003 117.84766,153.02005 C 118.28649,156.32008 120.04179,163.15585 119.16414,167.87018 C 118.28649,172.58450 119.16414,179.18455 117.18943,179.89171 C 115.21471,180.59885 113.89824,178.71312 113.89824,178.71312 C 113.89824,178.71312 107.97409,169.52019 107.53526,165.27730 C 107.33991,163.38852 106.87702,158.44153 107.75468,153.25577 C 108.19350,150.66289 108.96581,142.47467 109.18521,142.00324 z "
     id="path2530"
     sodipodi:nodetypes="csssccsc"
     inkscape:export-filename="/home/chckens/img/projects/backup4.png"
     inkscape:export-xdpi="117.70976"
     inkscape:export-ydpi="117.70976" />
  <path
     style="fill:none;fill-opacity:0.75000000;fill-rule:evenodd;stroke:#000000;stroke-width:0.25000000pt;stroke-linecap:butt;stroke-linejoin:miter;stroke-opacity:0.42662117"
     d="M 111.82965,195.60541 C 120.82192,202.05380 123.45596,202.96824 138.13219,206.06572 C 167.67687,211.01770 199.59955,202.79239 205.46289,194.77959"
     id="path2542"
     sodipodi:nodetypes="ccc"
     inkscape:export-filename="/home/chckens/img/projects/backup4.png"
     inkscape:export-xdpi="117.70976"
     inkscape:export-ydpi="117.70976" />
  <g
     id="g2272"
     transform="matrix(0.212048,0.000000,0.000000,0.212048,131.5306,148.0194)"
     inkscape:export-filename="/home/chckens/img/projects/backup4.png"
     inkscape:export-xdpi="117.70976"
     inkscape:export-ydpi="117.70976">
    <path
       sodipodi:nodetypes="csssssssssssssssssssc"
       id="path2262"
       d="M 232.49464,169.41187 C 232.49464,167.37602 232.29105,164.11865 233.91974,162.89714 C 235.54842,161.67562 238.39862,159.23260 241.65599,160.04694 C 244.91336,160.86128 247.76355,161.87921 248.37431,164.52582 C 248.98507,167.17243 248.78148,168.19036 248.78148,172.87283 C 248.78148,177.55529 247.15280,178.57322 250.00299,181.01625 C 252.85319,183.45927 254.07470,185.49513 257.33207,184.07003 C 260.58944,182.64493 261.81095,180.20190 265.06832,179.79473 C 268.32569,179.38756 270.97230,179.79473 271.17588,181.42342 C 271.37947,183.05210 270.15796,182.64493 273.82250,184.07003 C 277.48704,185.49513 280.13365,187.53098 278.50496,188.54891 C 276.87628,189.56684 278.70855,187.93815 279.11572,189.56684 C 279.52289,191.19552 280.74440,194.04572 277.48704,194.86006 C 274.22967,195.67440 274.63684,199.74611 273.41533,201.78197 C 272.19381,203.81782 269.54720,203.81782 264.86473,205.65009 C 260.18227,207.48236 256.92490,209.72180 250.00299,208.29670 C 243.08109,206.87160 239.41655,208.70387 237.38069,205.65009 C 235.34484,202.59631 231.88388,196.69233 234.12332,193.02779 C 236.36276,189.36325 237.38069,188.75250 237.38069,185.69871 C 237.38069,182.64493 237.58428,182.03417 235.54842,179.18398 C 233.51257,176.33378 232.49464,170.02263 232.49464,169.41187 z "
       style="fill:#2bf63d;fill-opacity:1.0000000;fill-rule:evenodd;stroke:#000000;stroke-width:0.25000000pt;stroke-linecap:butt;stroke-linejoin:miter;stroke-opacity:1.0000000" />
    <path
       sodipodi:open="true"
       sodipodi:end="6.2803254"
       sodipodi:start="0.0000000"
       d="M 241.65598,168.08856 A 2.9519897,2.9519897 0 1 1 241.65597,168.08012"
       sodipodi:ry="2.9519897"
       sodipodi:rx="2.9519897"
       sodipodi:cy="168.08856"
       sodipodi:cx="238.70399"
       id="path2256"
       style="opacity:1.0000000;fill:#ffffff;fill-opacity:1.0000000;fill-rule:nonzero;stroke:#000000;stroke-width:0.12500000;stroke-linecap:butt;stroke-linejoin:round;stroke-miterlimit:4.0000000;stroke-dasharray:none;stroke-dashoffset:0.0000000;stroke-opacity:1.0000000"
       sodipodi:type="arc" />
    <path
       sodipodi:open="true"
       sodipodi:end="6.2803254"
       sodipodi:start="0.0000000"
       d="M 240.02730,168.19035 A 1.1197202,1.2215130 0 1 1 240.02729,168.18686"
       sodipodi:ry="1.2215130"
       sodipodi:rx="1.1197202"
       sodipodi:cy="168.19035"
       sodipodi:cx="238.90758"
       id="path2258"
       style="opacity:1.0000000;fill:#0f0f0c;fill-opacity:1.0000000;fill-rule:nonzero;stroke:#000000;stroke-width:0.12500000;stroke-linecap:butt;stroke-linejoin:round;stroke-miterlimit:4.0000000;stroke-dasharray:none;stroke-dashoffset:0.0000000;stroke-opacity:1.0000000"
       sodipodi:type="arc" />
    <path
       sodipodi:nodetypes="cscc"
       id="path2260"
       d="M 232.90181,170.63338 C 229.64444,172.46565 228.21934,173.28000 229.64444,173.89075 C 231.06954,174.50151 233.10539,173.68717 233.10539,173.68717 L 232.90181,170.63338 z "
       style="fill:#eef62b;fill-opacity:1.0000000;fill-rule:evenodd;stroke:#000000;stroke-width:0.25000000pt;stroke-linecap:butt;stroke-linejoin:miter;stroke-opacity:1.0000000" />
    <path
       sodipodi:nodetypes="cssssssssscsssc"
       id="path2264"
       d="M 233.10540,163.50789 C 229.84803,161.87921 228.42293,159.23260 230.05161,157.80750 C 231.68030,156.38240 235.75201,152.92144 235.75201,154.95730 C 235.75201,156.99315 236.76993,160.45411 239.41655,156.38240 C 242.06316,152.31069 241.65599,152.51428 243.69184,155.56806 C 245.72770,158.62184 247.15280,153.73579 249.59582,154.95730 C 252.03885,156.17882 250.20658,159.23260 249.59582,160.04694 C 248.98507,160.86128 247.76355,160.65770 252.03885,160.04694 C 256.31414,159.43618 257.94283,160.25052 255.90698,163.10072 C 253.87112,165.95092 254.48187,167.78319 252.03885,167.98677 C 249.59582,168.19036 249.18865,167.98677 249.18865,167.98677 C 249.18865,167.98677 248.57789,166.35809 248.17072,164.72941 C 247.76355,163.10072 247.55997,161.67562 244.91336,161.26845 C 242.26674,160.86128 242.26674,159.84335 239.00938,160.65770 C 235.75201,161.47204 232.90181,163.30431 233.10540,163.50789 z "
       style="fill:#f62b2b;fill-opacity:1.0000000;fill-rule:evenodd;stroke:#000000;stroke-width:0.25000000pt;stroke-linecap:butt;stroke-linejoin:miter;stroke-opacity:1.0000000" />
    <path
       id="path2266"
       d="M 248.57789,188.54891 C 253.66753,188.54891 251.83526,185.49513 258.14641,186.51306 C 264.45756,187.53098 268.93644,186.51306 270.36154,189.97401 C 271.78664,193.43496 275.45118,195.47082 269.95437,197.91384 C 264.45756,200.35687 280.13364,199.33894 259.77509,202.18914 C 239.41654,205.03934 241.24881,203.00348 242.26674,200.96763 C 243.28467,198.93177 243.48825,197.09950 243.28467,195.87799 C 243.08108,194.65648 242.06316,191.80628 248.57789,188.54891 z "
       style="fill:none;fill-opacity:0.75000000;fill-rule:evenodd;stroke:#000000;stroke-width:0.25000000pt;stroke-linecap:butt;stroke-linejoin:miter;stroke-opacity:1.0000000" />
    <path
       id="path2268"
       d="M 248.57789,208.29670 C 248.77495,208.29996 249.07024,210.36998 249.18865,211.55407 C 249.31567,212.82428 248.75934,213.39228 248.57789,213.99710 C 248.37490,214.67376 245.62956,215.62432 245.11694,215.82937 C 244.92792,215.90498 244.70977,215.82937 244.50618,215.82937"
       style="fill:none;fill-opacity:0.75000000;fill-rule:evenodd;stroke:#000000;stroke-width:1.0000000pt;stroke-linecap:butt;stroke-linejoin:miter;stroke-opacity:1.0000000" />
    <path
       id="path2270"
       d="M 253.87112,208.70387 C 253.83792,208.71715 253.99392,211.15339 254.07470,211.96124 C 254.17416,212.95584 254.07470,214.01456 254.07470,215.01502 C 254.07470,215.41673 250.93236,216.76077 250.41016,217.05088 C 250.09470,217.22614 250.00958,217.31793 249.79941,217.45805"
       style="fill:none;fill-opacity:0.75000000;fill-rule:evenodd;stroke:#000000;stroke-width:1.0000000pt;stroke-linecap:butt;stroke-linejoin:miter;stroke-opacity:1.0000000" />
  </g>
  <g
     id="g2192"
     transform="matrix(0.873002,0.000000,0.000000,0.683707,27.38813,23.53978)"
     inkscape:export-filename="/home/chckens/img/projects/backup4.png"
     inkscape:export-xdpi="117.70976"
     inkscape:export-ydpi="117.70976">
    <path
       sodipodi:nodetypes="cccsc"
       id="path2376"
       d="M 154.89739,76.335830 C 161.80731,79.214964 172.17220,88.428192 172.17220,88.428192 L 180.23377,83.821578 C 180.23377,83.821578 169.86889,75.472090 165.26227,73.744610 C 160.65566,72.017130 155.47322,75.760004 154.89739,76.335830 z "
       style="fill:url(#linearGradient2196);fill-opacity:1.0000000;fill-rule:evenodd;stroke:#000000;stroke-width:0.25000000pt;stroke-linecap:butt;stroke-linejoin:miter;stroke-opacity:1.0000000" />
    <path
       sodipodi:nodetypes="ccccc"
       id="path2125"
       d="M 169.90488,86.520780 C 171.63236,85.369126 177.93046,82.058123 177.93046,82.058123 L 180.08982,83.821592 L 172.17220,88.140293 L 169.90488,86.520780 z "
       style="fill:url(#linearGradient2198);fill-opacity:1.0000000;fill-rule:evenodd;stroke:#000000;stroke-width:0.25000000pt;stroke-linecap:butt;stroke-linejoin:miter;stroke-opacity:1.0000000" />
  </g>
  <path
     style="fill:url(#linearGradient1627);fill-opacity:1.0000000;fill-rule:evenodd;stroke:#000000;stroke-width:0.059587281;stroke-linecap:butt;stroke-linejoin:miter;stroke-miterlimit:4.0000000;stroke-dasharray:none;stroke-opacity:1.0000000"
     d="M 164.99319,146.13757 L 165.86543,160.63100 L 173.21895,159.64553 L 172.20489,145.11978 L 164.99319,146.13757 z "
     id="path2461"
     sodipodi:nodetypes="ccccc"
     inkscape:export-filename="/home/chckens/img/projects/backup4.png"
     inkscape:export-xdpi="117.70976"
     inkscape:export-ydpi="117.70976" />
  <g
     id="g2230"
     style="fill:url(#linearGradient2248);fill-opacity:1.0000000;stroke:#000000;stroke-opacity:1.0000000"
     transform="matrix(1.147839,0.000000,0.000000,1.425064,-25.45188,-84.90274)"
     inkscape:export-filename="/home/chckens/img/projects/backup4.png"
     inkscape:export-xdpi="117.70976"
     inkscape:export-ydpi="117.70976">
    <path
       id="path2204"
       d="M 175.25000,166.26957 L 163.25000,167.23130 L 163.31250,168.38578 L 175.28125,167.31467 L 175.25000,166.26957 z "
       style="fill:url(#linearGradient1504);fill-opacity:1.0000000;fill-rule:evenodd;stroke:#000000;stroke-width:0.14517777;stroke-linecap:butt;stroke-linejoin:miter;stroke-miterlimit:4.0000000;stroke-dasharray:none;stroke-opacity:1.0000000"
       sodipodi:nodetypes="ccccc" />
    <path
       id="rect2168"
       d="M 165.99443,161.71156 C 163.94667,161.89358 162.42631,163.69228 162.61059,165.71496 L 162.92723,169.19037 C 163.11152,171.21303 164.93256,172.71474 166.98035,172.53272 L 172.81796,172.01382 C 174.86574,171.83179 176.38608,170.03309 176.20181,168.01042 L 175.88517,164.53502 C 175.70089,162.51235 173.87983,161.01064 171.83205,161.19267 L 165.99443,161.71156 z M 166.08440,162.69889 L 171.92200,162.17999 C 173.41838,162.04699 174.71094,163.14941 174.84559,164.62742 L 175.16223,168.10282 C 175.29688,169.58082 174.22436,170.89349 172.72801,171.02649 L 166.89040,171.54538 C 165.39401,171.67840 164.10147,170.57597 163.96681,169.09797 L 163.65017,165.62256 C 163.51550,164.14454 164.58804,162.83190 166.08440,162.69889 z "
       style="opacity:1.0000000;fill:url(#linearGradient1506);fill-opacity:1.0000000;fill-rule:nonzero;stroke:#000000;stroke-width:0.13150480;stroke-linecap:butt;stroke-linejoin:round;stroke-miterlimit:4.0000000;stroke-dasharray:none;stroke-dashoffset:0.0000000;stroke-opacity:1.0000000" />
  </g>
  <flowRoot
     id="flowRoot1540"
     xml:space="preserve"
     transform="translate(190.5560,71.66210)"><flowRegion
       id="flowRegion1542"><rect
         y="81.666512"
         x="190.14886"
         height="19.544209"
         width="28.501970"
         id="rect1544" /></flowRegion><flowPara
       id="flowPara1546">1010</flowPara></flowRoot>  <path
     style="fill:url(#linearGradient2357);fill-opacity:1.0;fill-rule:evenodd;stroke:none;stroke-width:0.25000000pt;stroke-linecap:butt;stroke-linejoin:miter;stroke-opacity:1.0000000"
     d="M 198.90303,193.85694 C 194.32236,195.52152 149.07223,201.76093 141.89910,200.95832 C 140.88117,195.19556 141.49192,172.63937 140.27041,170.43583 C 139.04890,168.23228 139.86323,170.35375 139.04889,170.79445 L 140.06683,202.74996 C 158.34783,202.30455 191.50461,198.59208 198.90303,193.85694 z "
     id="path1388"
     sodipodi:nodetypes="ccsccc"
     inkscape:export-filename="/home/chckens/img/projects/backup4.png"
     inkscape:export-xdpi="117.70976"
     inkscape:export-ydpi="117.70976" />
  <path
     sodipodi:nodetypes="ccccc"
     id="path1386"
     d="M 140.45699,169.84933 C 161.20256,171.20821 176.86886,169.64427 195.51537,164.02416 L 196.79580,193.88101 C 177.43858,197.84774 160.48945,200.32551 141.85201,201.41311 L 140.45699,169.84933 z "
     style="fill:#bcba98;fill-opacity:1.0000000;fill-rule:evenodd;stroke:#000000;stroke-width:0.26649243;stroke-linecap:butt;stroke-linejoin:miter;stroke-miterlimit:4.0000000;stroke-dasharray:none;stroke-opacity:1.0000000"
     inkscape:export-filename="/home/chckens/img/projects/backup4.png"
     inkscape:export-xdpi="117.70976"
     inkscape:export-ydpi="117.70976" />
</svg>
